<svg width="307" height="52" viewBox="0 0 307 52" fill="none" xmlns="http://www.w3.org/2000/svg">
<rect width="307" height="48.5323" rx="24.2661" fill="#447DD1"/>
<path d="M98.5598 19.2634H97.3821C97.3821 18.9118 97.3059 18.572 97.1536 18.2438C97.013 17.9157 96.8137 17.6462 96.5559 17.4352C96.3216 17.236 96.052 17.0837 95.7473 16.9782C95.4426 16.861 95.1321 16.7966 94.8157 16.7849C94.3001 16.7849 93.8137 16.8962 93.3567 17.1188C92.8997 17.3415 92.4837 17.6872 92.1087 18.1559C91.7454 18.613 91.4641 19.2048 91.2649 19.9313C91.0774 20.6462 90.9837 21.3552 90.9837 22.0583C90.9837 22.5153 91.0305 23.0661 91.1243 23.7106C91.2298 24.3552 91.4466 24.9821 91.7747 25.5915C92.0794 26.1774 92.5305 26.6813 93.1282 27.1032C93.7376 27.5251 94.429 27.736 95.2024 27.736C95.8235 27.736 96.4094 27.6306 96.9602 27.4196C97.5227 27.197 97.9153 26.9977 98.138 26.822V27.9294C98.0794 27.9645 97.9622 28.0231 97.7864 28.1052C97.6223 28.1872 97.4114 28.2634 97.1536 28.3337C96.4739 28.5446 95.718 28.6501 94.886 28.6501C94.1126 28.6501 93.386 28.4626 92.7063 28.0876C92.0384 27.7009 91.4876 27.1911 91.054 26.5583C90.6087 25.9372 90.2981 25.2399 90.1223 24.4665C89.9466 23.6813 89.8587 22.8786 89.8587 22.0583C89.8587 21.238 89.9524 20.4587 90.1399 19.7204C90.3391 18.9821 90.6497 18.3259 91.0716 17.7516C91.4817 17.2009 91.9973 16.7497 92.6184 16.3981C93.2395 16.0466 93.9719 15.8708 94.8157 15.8708C95.3313 15.8708 95.8118 15.9587 96.2571 16.1345C96.7141 16.3102 97.1067 16.5446 97.4348 16.8376C97.763 17.154 98.0325 17.5231 98.2434 17.945C98.4544 18.3669 98.5598 18.8063 98.5598 19.2634ZM106.049 24.1501C106.049 23.6462 105.99 23.1599 105.873 22.6911C105.768 22.2106 105.598 21.8063 105.363 21.4782C105.141 21.1501 104.865 20.8981 104.537 20.7224C104.209 20.5466 103.869 20.4587 103.518 20.4587C103.166 20.4587 102.826 20.5466 102.498 20.7224C102.17 20.8981 101.894 21.1501 101.672 21.4782C101.437 21.8063 101.262 22.2106 101.144 22.6911C101.039 23.1599 100.986 23.6462 100.986 24.1501C100.986 24.654 101.039 25.1462 101.144 25.6266C101.262 26.0954 101.437 26.488 101.672 26.8044C101.894 27.1442 102.17 27.402 102.498 27.5778C102.826 27.7536 103.166 27.8415 103.518 27.8415C103.869 27.8415 104.209 27.7536 104.537 27.5778C104.865 27.402 105.141 27.1442 105.363 26.8044C105.598 26.488 105.768 26.0954 105.873 25.6266C105.99 25.1462 106.049 24.654 106.049 24.1501ZM107.174 24.1501C107.174 24.7126 107.103 25.2634 106.963 25.8024C106.822 26.3298 106.623 26.7809 106.365 27.1559C106.072 27.5895 105.68 27.947 105.187 28.2282C104.707 28.4977 104.15 28.6325 103.518 28.6325C102.885 28.6325 102.322 28.4977 101.83 28.2282C101.35 27.947 100.963 27.5895 100.67 27.1559C100.412 26.7809 100.213 26.3298 100.072 25.8024C99.9316 25.2634 99.8613 24.7126 99.8613 24.1501C99.8613 23.5876 99.9316 23.0427 100.072 22.5153C100.213 21.9763 100.412 21.5192 100.67 21.1442C100.963 20.7106 101.35 20.3591 101.83 20.0895C102.322 19.8083 102.885 19.6677 103.518 19.6677C104.15 19.6677 104.707 19.8083 105.187 20.0895C105.68 20.3591 106.072 20.7106 106.365 21.1442C106.623 21.5192 106.822 21.9763 106.963 22.5153C107.103 23.0427 107.174 23.5876 107.174 24.1501ZM115.383 28.4391H114.346V22.779C114.346 22.1345 114.188 21.5895 113.872 21.1442C113.602 20.7458 113.145 20.5466 112.501 20.5466C111.95 20.5466 111.463 20.7927 111.042 21.2849C110.631 21.7653 110.327 22.4567 110.128 23.3591C110.081 23.5817 110.046 23.8044 110.022 24.027C110.01 24.2497 110.005 24.4665 110.005 24.6774V28.4391H108.985V19.861H110.005V21.7243C110.251 21.0563 110.59 20.5524 111.024 20.2126C111.493 19.8376 112.026 19.6501 112.624 19.6501C113.491 19.6501 114.153 19.8845 114.61 20.3532C115.126 20.8454 115.383 21.6071 115.383 22.6384V28.4391ZM121.607 20.6696H119.339V25.6442C119.339 25.9138 119.339 26.1716 119.339 26.4177C119.339 26.6638 119.392 26.9099 119.497 27.1559C119.591 27.3786 119.743 27.5427 119.954 27.6481C120.165 27.7536 120.417 27.8063 120.71 27.8063C121.027 27.8063 121.314 27.7829 121.572 27.736V28.5798C121.314 28.6149 120.962 28.6325 120.517 28.6325C119.732 28.6325 119.163 28.4684 118.812 28.1403C118.472 27.8005 118.302 27.2438 118.302 26.4704V20.6696H116.931V19.861H118.302V17.7516L119.339 17.2243V19.861H121.607V20.6696ZM124.508 17.5759H123.189V16.0993H124.508V17.5759ZM124.402 28.4391H123.33V19.861H124.402V28.4391ZM133.139 28.4391H132.102V22.779C132.102 22.1345 131.944 21.5895 131.628 21.1442C131.358 20.7458 130.901 20.5466 130.256 20.5466C129.706 20.5466 129.219 20.7927 128.797 21.2849C128.387 21.7653 128.083 22.4567 127.883 23.3591C127.837 23.5817 127.801 23.8044 127.778 24.027C127.766 24.2497 127.76 24.4665 127.76 24.6774V28.4391H126.741V19.861H127.76V21.7243C128.006 21.0563 128.346 20.5524 128.78 20.2126C129.249 19.8376 129.782 19.6501 130.379 19.6501C131.247 19.6501 131.909 19.8845 132.366 20.3532C132.881 20.8454 133.139 21.6071 133.139 22.6384V28.4391ZM135.407 19.861H136.445V25.5212C136.445 26.1306 136.603 26.6755 136.919 27.1559C137.2 27.5544 137.657 27.7536 138.29 27.7536C138.841 27.7536 139.322 27.5134 139.732 27.0329C140.154 26.5407 140.464 25.8434 140.663 24.9411C140.71 24.7067 140.74 24.4841 140.751 24.2731C140.775 24.0505 140.786 23.8337 140.786 23.6227V19.861H141.806V28.4391H140.786V26.5759C140.54 27.2321 140.2 27.736 139.767 28.0876C139.298 28.4626 138.765 28.6501 138.167 28.6501C137.3 28.6501 136.638 28.4157 136.181 27.947C135.665 27.4548 135.407 26.6931 135.407 25.6618V19.861ZM144.742 23.6227H149.277C149.277 22.6618 149.148 21.9235 148.891 21.4079C148.75 21.1266 148.533 20.8981 148.24 20.7224C147.959 20.5466 147.637 20.4587 147.273 20.4587C146.547 20.4587 145.943 20.7692 145.463 21.3903C145.029 21.9411 144.789 22.6852 144.742 23.6227ZM144.76 24.4313C144.771 24.5602 144.783 24.6774 144.795 24.7829C144.83 25.0641 144.894 25.3513 144.988 25.6442C145.105 25.9841 145.275 26.3122 145.498 26.6286C145.721 26.9333 146.031 27.2028 146.43 27.4372C146.57 27.5192 146.775 27.6013 147.045 27.6833C147.326 27.7653 147.648 27.8063 148.012 27.8063C148.293 27.8063 148.633 27.7653 149.031 27.6833C149.441 27.6013 149.799 27.4724 150.103 27.2966V28.0524C149.693 28.2985 149.23 28.4684 148.715 28.5622C148.211 28.6559 147.695 28.6735 147.168 28.6149C146.711 28.5681 146.266 28.4391 145.832 28.2282C145.398 28.0173 145.053 27.7595 144.795 27.4548C144.455 27.0798 144.174 26.5993 143.951 26.0134C143.728 25.4274 143.617 24.7419 143.617 23.9567C143.617 23.3122 143.699 22.7321 143.863 22.2165C144.027 21.6891 144.262 21.238 144.566 20.863C144.871 20.488 145.246 20.195 145.691 19.9841C146.148 19.7614 146.676 19.6501 147.273 19.6501C147.754 19.6501 148.211 19.7556 148.644 19.9665C149.09 20.1657 149.43 20.4294 149.664 20.7575C150.121 21.3903 150.35 22.3161 150.35 23.5349V24.4313H144.76ZM166.892 19.861L164.923 28.4391H163.904L161.777 21.4079L159.685 28.4391H158.7L156.661 19.861H157.628L159.228 27.1032L161.355 19.861H162.181L164.325 27.1032L165.943 19.861H166.892ZM169.723 17.5759H168.404V16.0993H169.723V17.5759ZM169.617 28.4391H168.545V19.861H169.617V28.4391ZM175.911 20.6696H173.643V25.6442C173.643 25.9138 173.643 26.1716 173.643 26.4177C173.643 26.6638 173.696 26.9099 173.801 27.1559C173.895 27.3786 174.047 27.5427 174.258 27.6481C174.469 27.7536 174.721 27.8063 175.014 27.8063C175.331 27.8063 175.618 27.7829 175.876 27.736V28.5798C175.618 28.6149 175.266 28.6325 174.821 28.6325C174.036 28.6325 173.467 28.4684 173.116 28.1403C172.776 27.8005 172.606 27.2438 172.606 26.4704V20.6696H171.235V19.861H172.606V17.7516L173.643 17.2243V19.861H175.911V20.6696ZM183.962 28.4391H182.925V22.779C182.925 22.1345 182.767 21.5895 182.45 21.1442C182.181 20.7458 181.724 20.5466 181.079 20.5466C180.529 20.5466 180.042 20.7927 179.62 21.2849C179.21 21.7653 178.906 22.4567 178.706 23.3591C178.659 23.5817 178.624 23.8044 178.601 24.027C178.589 24.2497 178.583 24.4665 178.583 24.6774V28.4391H177.564V16.0993H178.583V21.7243C178.829 21.0563 179.169 20.5524 179.603 20.2126C180.072 19.8376 180.605 19.6501 181.202 19.6501C182.07 19.6501 182.732 19.8845 183.189 20.3532C183.704 20.8454 183.962 21.6071 183.962 22.6384V28.4391ZM196.075 16.8727C195.969 16.8376 195.788 16.7966 195.53 16.7497C195.284 16.7028 195.008 16.6794 194.704 16.6794C194.387 16.6794 194.124 16.7321 193.913 16.8376C193.713 16.9431 193.538 17.1306 193.385 17.4001C193.268 17.5876 193.192 17.7985 193.157 18.0329C193.133 18.2556 193.122 18.5368 193.122 18.8766V19.861H195.477V20.6696H193.122V28.4391H192.049V20.6696H190.608V19.861H192.049V19.2809C192.049 18.7888 192.067 18.3552 192.102 17.9802C192.149 17.5934 192.26 17.236 192.436 16.9079C192.624 16.6266 192.881 16.3864 193.21 16.1872C193.538 15.988 194.018 15.8825 194.651 15.8708C194.956 15.8708 195.243 15.8942 195.512 15.9411C195.782 15.988 195.969 16.0231 196.075 16.0466V16.8727ZM203.177 28.4391H202.122V27.0681C201.782 27.5368 201.384 27.8942 200.927 28.1403C200.657 28.3044 200.353 28.4274 200.013 28.5095C199.685 28.5915 199.304 28.6325 198.87 28.6325C198.636 28.6325 198.384 28.5798 198.115 28.4743C197.845 28.3688 197.616 28.2282 197.429 28.0524C197.241 27.8649 197.089 27.6364 196.972 27.3669C196.855 27.0974 196.796 26.7927 196.796 26.4528C196.796 25.8317 196.96 25.2927 197.288 24.8356C197.628 24.3786 198.038 24.0622 198.519 23.8864C198.847 23.7692 199.199 23.6813 199.574 23.6227C199.96 23.5641 200.306 23.5349 200.611 23.5349H202.122V22.5856C202.122 22.4099 202.099 22.1989 202.052 21.9528C202.017 21.7067 201.929 21.4782 201.788 21.2673C201.636 21.0446 201.413 20.8571 201.12 20.7048C200.839 20.5407 200.505 20.4587 200.118 20.4587C199.615 20.4587 199.175 20.6052 198.8 20.8981C198.425 21.1794 198.238 21.5134 198.238 21.9001H197.007C197.007 21.7126 197.066 21.4782 197.183 21.197C197.312 20.9157 197.493 20.6638 197.728 20.4411C197.986 20.2067 198.32 20.0192 198.73 19.8786C199.152 19.7263 199.615 19.6501 200.118 19.6501C201.138 19.6501 201.9 19.9255 202.404 20.4763C202.919 21.0153 203.177 21.695 203.177 22.5153V28.4391ZM202.122 25.2048V24.2556C201.771 24.2556 201.419 24.2614 201.068 24.2731C200.728 24.2731 200.312 24.3141 199.82 24.3962C199.351 24.4665 198.923 24.6481 198.536 24.9411C198.103 25.3044 197.886 25.7497 197.886 26.277C197.886 26.8161 198.032 27.2087 198.325 27.4548C198.63 27.7009 198.999 27.8239 199.433 27.8239C199.597 27.8239 199.82 27.7829 200.101 27.7009C200.382 27.6188 200.64 27.5134 200.874 27.3845C201.331 27.0915 201.683 26.7165 201.929 26.2595C202.058 26.0016 202.122 25.6501 202.122 25.2048ZM211.685 22.3395H210.56C210.396 21.0856 209.746 20.4587 208.609 20.4587C207.883 20.4587 207.279 20.7692 206.799 21.3903C206.318 22.0114 206.078 22.8727 206.078 23.9743C206.078 24.2321 206.096 24.5016 206.131 24.7829C206.166 25.0641 206.23 25.3513 206.324 25.6442C206.441 25.9841 206.611 26.3122 206.834 26.6286C207.057 26.9333 207.367 27.2028 207.766 27.4372C207.906 27.5192 208.111 27.6013 208.381 27.6833C208.662 27.7653 208.984 27.8063 209.348 27.8063C209.629 27.8063 209.969 27.7653 210.367 27.6833C210.777 27.6013 211.135 27.4724 211.439 27.2966V28.0524C211.029 28.2985 210.566 28.4684 210.051 28.5622C209.547 28.6559 209.031 28.6735 208.504 28.6149C208.047 28.5681 207.602 28.4391 207.168 28.2282C206.734 28.0173 206.389 27.7595 206.131 27.4548C205.791 27.0798 205.51 26.5993 205.287 26.0134C205.064 25.4274 204.953 24.7419 204.953 23.9567C204.953 23.3122 205.035 22.7321 205.199 22.2165C205.363 21.6891 205.598 21.238 205.902 20.863C206.207 20.488 206.588 20.195 207.045 19.9841C207.514 19.7614 208.047 19.6501 208.644 19.6501C209.09 19.6501 209.488 19.7145 209.84 19.8434C210.191 19.9606 210.508 20.1481 210.789 20.4059C211.328 20.8981 211.627 21.5427 211.685 22.3395ZM214.235 23.6227H218.77C218.77 22.6618 218.641 21.9235 218.383 21.4079C218.243 21.1266 218.026 20.8981 217.733 20.7224C217.452 20.5466 217.13 20.4587 216.766 20.4587C216.04 20.4587 215.436 20.7692 214.956 21.3903C214.522 21.9411 214.282 22.6852 214.235 23.6227ZM214.253 24.4313C214.264 24.5602 214.276 24.6774 214.288 24.7829C214.323 25.0641 214.387 25.3513 214.481 25.6442C214.598 25.9841 214.768 26.3122 214.991 26.6286C215.213 26.9333 215.524 27.2028 215.922 27.4372C216.063 27.5192 216.268 27.6013 216.538 27.6833C216.819 27.7653 217.141 27.8063 217.505 27.8063C217.786 27.8063 218.126 27.7653 218.524 27.6833C218.934 27.6013 219.292 27.4724 219.596 27.2966V28.0524C219.186 28.2985 218.723 28.4684 218.208 28.5622C217.704 28.6559 217.188 28.6735 216.661 28.6149C216.204 28.5681 215.758 28.4391 215.325 28.2282C214.891 28.0173 214.546 27.7595 214.288 27.4548C213.948 27.0798 213.667 26.5993 213.444 26.0134C213.221 25.4274 213.11 24.7419 213.11 23.9567C213.11 23.3122 213.192 22.7321 213.356 22.2165C213.52 21.6891 213.755 21.238 214.059 20.863C214.364 20.488 214.739 20.195 215.184 19.9841C215.641 19.7614 216.169 19.6501 216.766 19.6501C217.247 19.6501 217.704 19.7556 218.137 19.9665C218.583 20.1657 218.922 20.4294 219.157 20.7575C219.614 21.3903 219.842 22.3161 219.842 23.5349V24.4313H214.253ZM227.49 24.1501C227.49 23.6579 227.437 23.1833 227.331 22.7263C227.226 22.2575 227.074 21.8532 226.874 21.5134C226.652 21.1852 226.382 20.9333 226.066 20.7575C225.749 20.57 225.433 20.4763 225.116 20.4763C224.812 20.4763 224.501 20.5817 224.185 20.7927C223.88 20.9919 223.628 21.2497 223.429 21.5661C223.23 21.9059 223.066 22.2985 222.937 22.7438C222.82 23.1891 222.761 23.6579 222.761 24.1501C222.761 24.6423 222.814 25.1227 222.919 25.5915C223.036 26.0485 223.195 26.4411 223.394 26.7692C223.593 27.1208 223.851 27.3845 224.167 27.5602C224.495 27.736 224.812 27.8239 225.116 27.8239C225.433 27.8239 225.749 27.736 226.066 27.5602C226.394 27.3845 226.663 27.1208 226.874 26.7692C227.074 26.4411 227.226 26.0485 227.331 25.5915C227.437 25.1227 227.49 24.6423 227.49 24.1501ZM225.222 19.6501C225.749 19.6501 226.236 19.7673 226.681 20.0016C227.138 20.236 227.501 20.5524 227.771 20.9509C228.04 21.3493 228.24 21.8239 228.368 22.3747C228.509 22.9255 228.579 23.488 228.579 24.0622C228.579 24.8005 228.497 25.4684 228.333 26.0661C228.169 26.652 227.952 27.1266 227.683 27.4899C227.402 27.8766 227.038 28.1638 226.593 28.3513C226.159 28.5388 225.673 28.6325 225.134 28.6325C224.583 28.6325 224.091 28.5388 223.658 28.3513C223.236 28.1638 222.89 27.8766 222.62 27.4899C222.339 27.1266 222.116 26.652 221.952 26.0661C221.8 25.4684 221.724 24.8005 221.724 24.0622V16.0993H222.743V21.2145C223.306 20.1716 224.132 19.6501 225.222 19.6501ZM236.121 24.1501C236.121 23.6462 236.062 23.1599 235.945 22.6911C235.84 22.2106 235.67 21.8063 235.435 21.4782C235.213 21.1501 234.937 20.8981 234.609 20.7224C234.281 20.5466 233.941 20.4587 233.59 20.4587C233.238 20.4587 232.898 20.5466 232.57 20.7224C232.242 20.8981 231.967 21.1501 231.744 21.4782C231.51 21.8063 231.334 22.2106 231.217 22.6911C231.111 23.1599 231.059 23.6462 231.059 24.1501C231.059 24.654 231.111 25.1462 231.217 25.6266C231.334 26.0954 231.51 26.488 231.744 26.8044C231.967 27.1442 232.242 27.402 232.57 27.5778C232.898 27.7536 233.238 27.8415 233.59 27.8415C233.941 27.8415 234.281 27.7536 234.609 27.5778C234.937 27.402 235.213 27.1442 235.435 26.8044C235.67 26.488 235.84 26.0954 235.945 25.6266C236.062 25.1462 236.121 24.654 236.121 24.1501ZM237.246 24.1501C237.246 24.7126 237.176 25.2634 237.035 25.8024C236.894 26.3298 236.695 26.7809 236.437 27.1559C236.144 27.5895 235.752 27.947 235.26 28.2282C234.779 28.4977 234.223 28.6325 233.59 28.6325C232.957 28.6325 232.394 28.4977 231.902 28.2282C231.422 27.947 231.035 27.5895 230.742 27.1559C230.484 26.7809 230.285 26.3298 230.144 25.8024C230.004 25.2634 229.934 24.7126 229.934 24.1501C229.934 23.5876 230.004 23.0427 230.144 22.5153C230.285 21.9763 230.484 21.5192 230.742 21.1442C231.035 20.7106 231.422 20.3591 231.902 20.0895C232.394 19.8083 232.957 19.6677 233.59 19.6677C234.223 19.6677 234.779 19.8083 235.26 20.0895C235.752 20.3591 236.144 20.7106 236.437 21.1442C236.695 21.5192 236.894 21.9763 237.035 22.5153C237.176 23.0427 237.246 23.5876 237.246 24.1501ZM244.788 24.1501C244.788 23.6462 244.729 23.1599 244.612 22.6911C244.506 22.2106 244.337 21.8063 244.102 21.4782C243.879 21.1501 243.604 20.8981 243.276 20.7224C242.948 20.5466 242.608 20.4587 242.256 20.4587C241.905 20.4587 241.565 20.5466 241.237 20.7224C240.909 20.8981 240.633 21.1501 240.411 21.4782C240.176 21.8063 240.001 22.2106 239.883 22.6911C239.778 23.1599 239.725 23.6462 239.725 24.1501C239.725 24.654 239.778 25.1462 239.883 25.6266C240.001 26.0954 240.176 26.488 240.411 26.8044C240.633 27.1442 240.909 27.402 241.237 27.5778C241.565 27.7536 241.905 27.8415 242.256 27.8415C242.608 27.8415 242.948 27.7536 243.276 27.5778C243.604 27.402 243.879 27.1442 244.102 26.8044C244.337 26.488 244.506 26.0954 244.612 25.6266C244.729 25.1462 244.788 24.654 244.788 24.1501ZM245.913 24.1501C245.913 24.7126 245.842 25.2634 245.702 25.8024C245.561 26.3298 245.362 26.7809 245.104 27.1559C244.811 27.5895 244.419 27.947 243.926 28.2282C243.446 28.4977 242.889 28.6325 242.256 28.6325C241.624 28.6325 241.061 28.4977 240.569 28.2282C240.088 27.947 239.702 27.5895 239.409 27.1559C239.151 26.7809 238.952 26.3298 238.811 25.8024C238.671 25.2634 238.6 24.7126 238.6 24.1501C238.6 23.5876 238.671 23.0427 238.811 22.5153C238.952 21.9763 239.151 21.5192 239.409 21.1442C239.702 20.7106 240.088 20.3591 240.569 20.0895C241.061 19.8083 241.624 19.6677 242.256 19.6677C242.889 19.6677 243.446 19.8083 243.926 20.0895C244.419 20.3591 244.811 20.7106 245.104 21.1442C245.362 21.5192 245.561 21.9763 245.702 22.5153C245.842 23.0427 245.913 23.5876 245.913 24.1501ZM253.999 28.4391H252.716L248.743 24.0798V28.4391H247.724V16.0993H248.743V23.4294L252.505 19.861H253.824L249.728 23.6755L253.999 28.4391Z" fill="white"/>
<path d="M23.6153 4.17743C12.9888 4.17743 4.37317 13.6368 4.37317 25.3042C4.37317 35.8475 11.4088 44.5864 20.6094 46.1774V31.4126H15.7214V25.3042H20.6094V20.6495C20.6094 15.3504 23.4826 12.4283 27.876 12.4283C29.9813 12.4283 32.1867 12.8403 32.1867 12.8403V18.0359H29.7542C27.3679 18.0359 26.6213 19.667 26.6213 21.3383V25.3H31.9538L31.1013 31.4083H26.6213V46.1732C35.8219 44.5907 42.8575 35.8496 42.8575 25.3042C42.8575 13.6368 34.2419 4.17743 23.6153 4.17743Z" fill="white"/>
</svg>
