<svg width="335" height="208" viewBox="0 0 335 208" fill="none" xmlns="http://www.w3.org/2000/svg">
<g filter="url(#filter0_d)">
<path d="M61.2879 79.134C54.5379 79.134 49.2999 76.353 45.5739 70.791V66.417C47.0319 69.657 49.1379 72.195 51.8919 74.031C54.6999 75.867 58.0479 76.785 61.9359 76.785C64.6359 76.785 67.1199 76.191 69.3879 75.003C71.7099 73.815 73.5459 72.141 74.8959 69.981C76.2459 67.821 76.9209 65.337 76.9209 62.529C76.9209 59.991 76.4889 57.804 75.6249 55.968C74.7609 54.132 73.3299 52.377 71.3319 50.703C69.3339 48.975 66.4449 46.95 62.6649 44.628L60.0729 43.008C57.6969 41.55 55.7799 40.254 54.3219 39.12C52.8639 37.986 51.5949 36.663 50.5149 35.151C49.1109 33.045 48.4089 30.615 48.4089 27.861C48.4089 24.189 49.5969 21.327 51.9729 19.275C54.3489 17.223 57.3729 16.197 61.0449 16.197C66.0129 16.197 69.9549 18.033 72.8709 21.705V25.836C71.6289 23.568 69.9279 21.786 67.7679 20.49C65.6079 19.194 63.2319 18.546 60.6399 18.546C57.9399 18.546 55.6719 19.383 53.8359 21.057C51.9999 22.731 51.0819 24.972 51.0819 27.78C51.0819 30.534 51.9189 32.91 53.5929 34.908C55.3209 36.852 58.2099 38.985 62.2599 41.307C67.2279 44.223 71.0889 46.869 73.8429 49.245C75.7869 51.027 77.1909 52.998 78.0549 55.158C78.9729 57.318 79.4319 59.721 79.4319 62.367C79.4319 65.715 78.6489 68.658 77.0829 71.196C75.5169 73.734 73.3569 75.705 70.6029 77.109C67.8489 78.459 64.7439 79.134 61.2879 79.134ZM104.934 79.296C101.262 79.296 97.9408 78.405 94.9708 76.623C92.0008 74.787 89.6788 72.384 88.0048 69.414C86.3308 66.39 85.4937 63.123 85.4937 59.613C85.4937 56.157 86.3308 52.944 88.0048 49.974C89.7328 47.004 92.0548 44.655 94.9708 42.927C97.9408 41.145 101.235 40.254 104.853 40.254C108.417 40.254 111.657 41.145 114.573 42.927C117.543 44.655 119.865 47.004 121.539 49.974C123.213 52.944 124.05 56.157 124.05 59.613C124.05 63.231 123.24 66.552 121.62 69.576C120 72.546 117.732 74.922 114.816 76.704C111.954 78.432 108.66 79.296 104.934 79.296ZM104.934 77.028C108.012 77.028 110.82 76.245 113.358 74.679C115.896 73.113 117.867 71.034 119.271 68.442C120.729 65.796 121.458 62.907 121.458 59.775C121.458 56.697 120.729 53.835 119.271 51.189C117.813 48.543 115.815 46.437 113.277 44.871C110.739 43.305 107.931 42.522 104.853 42.522C101.775 42.522 98.9398 43.332 96.3478 44.952C93.8098 46.518 91.7848 48.624 90.2727 51.27C88.8148 53.916 88.0858 56.778 88.0858 59.856C88.0858 62.934 88.8148 65.796 90.2727 68.442C91.7848 71.034 93.8098 73.113 96.3478 74.679C98.9398 76.245 101.802 77.028 104.934 77.028ZM147.839 78.891C142.709 78.891 138.74 77.487 135.932 74.679C133.178 71.871 131.801 67.902 131.801 62.772V41.55H134.393V62.772C134.393 67.2 135.554 70.629 137.876 73.059C140.252 75.435 143.573 76.623 147.839 76.623C150.431 76.623 152.807 76.056 154.967 74.922C157.127 73.734 158.828 72.087 160.07 69.981C161.312 67.875 161.933 65.472 161.933 62.772V41.55H164.525V78H161.933V71.196C160.691 73.464 158.828 75.327 156.344 76.785C153.86 78.189 151.025 78.891 147.839 78.891ZM174.419 41.55H177.011V50.46C178.469 47.544 180.737 45.195 183.815 43.413C186.893 41.577 190.133 40.659 193.535 40.659C197.045 40.659 200.258 41.523 203.174 43.251C206.144 44.979 208.493 47.301 210.221 50.217C211.949 53.133 212.813 56.319 212.813 59.775C212.813 63.231 211.949 66.417 210.221 69.333C208.493 72.249 206.144 74.571 203.174 76.299C200.258 78.027 197.045 78.891 193.535 78.891C190.241 78.891 187.055 78 183.977 76.218C180.953 74.436 178.631 72.087 177.011 69.171V94.2H174.419V41.55ZM193.697 76.623C196.667 76.623 199.421 75.867 201.959 74.355C204.497 72.789 206.495 70.737 207.953 68.199C209.465 65.607 210.221 62.799 210.221 59.775C210.221 56.805 209.465 54.024 207.953 51.432C206.441 48.84 204.416 46.788 201.878 45.276C199.34 43.71 196.586 42.927 193.616 42.927C190.646 42.927 187.865 43.71 185.273 45.276C182.735 46.842 180.683 48.921 179.117 51.513C177.605 54.105 176.849 56.886 176.849 59.856C176.849 62.826 177.605 65.607 179.117 68.199C180.683 70.737 182.762 72.789 185.354 74.355C187.946 75.867 190.727 76.623 193.697 76.623Z" fill="black" fill-opacity="0.26"/>
</g>
<g filter="url(#filter1_d)">
<path d="M129.29 157.62C123.62 157.62 118.355 156.135 113.495 153.165C108.635 150.195 104.774 146.253 101.912 141.339C99.1039 136.371 97.6999 131.052 97.6999 125.382C97.6999 119.766 99.1309 114.528 101.993 109.668C104.855 104.754 108.716 100.866 113.576 98.004C118.436 95.088 123.701 93.63 129.371 93.63C135.095 93.63 140.36 95.061 145.166 97.923C149.972 100.785 153.779 104.673 156.587 109.587C159.449 114.447 160.88 119.712 160.88 125.382C160.88 131.214 159.449 136.614 156.587 141.582C153.779 146.496 149.945 150.411 145.085 153.327C140.279 156.189 135.014 157.62 129.29 157.62ZM129.29 155.271C134.474 155.271 139.28 153.948 143.708 151.302C148.136 148.602 151.646 144.984 154.238 140.448C156.884 135.858 158.207 130.89 158.207 125.544C158.207 120.252 156.911 115.338 154.319 110.802C151.727 106.266 148.217 102.675 143.789 100.029C139.361 97.329 134.555 95.979 129.371 95.979C124.133 95.979 119.3 97.329 114.872 100.029C110.444 102.675 106.907 106.266 104.261 110.802C101.669 115.338 100.373 120.252 100.373 125.544C100.373 130.89 101.669 135.858 104.261 140.448C106.907 144.984 110.444 148.602 114.872 151.302C119.3 153.948 124.106 155.271 129.29 155.271ZM169.458 119.55H172.05V127.65C173.238 124.95 175.263 122.79 178.125 121.17C180.987 119.496 184.146 118.659 187.602 118.659C192.084 118.659 195.621 120.09 198.213 122.952C200.859 125.76 202.182 129.702 202.182 134.778V156H199.59V134.778C199.59 130.404 198.51 127.002 196.35 124.572C194.244 122.142 191.274 120.927 187.44 120.927C184.632 120.927 182.04 121.575 179.664 122.871C177.342 124.113 175.479 125.841 174.075 128.055C172.725 130.269 172.05 132.78 172.05 135.588V156H169.458V119.55ZM225.928 156.729C223.39 156.729 221.068 156.162 218.962 155.028C216.856 153.84 215.182 152.193 213.94 150.087C212.698 147.981 212.077 145.632 212.077 143.04V95.25H214.669V143.04C214.669 145.2 215.155 147.144 216.127 148.872C217.153 150.6 218.53 151.977 220.258 153.003C221.986 153.975 223.876 154.461 225.928 154.461V156.729ZM237.131 111.207C236.375 111.207 235.7 110.937 235.106 110.397C234.566 109.857 234.295 109.182 234.295 108.372C234.295 107.616 234.566 106.968 235.106 106.428C235.7 105.888 236.375 105.618 237.131 105.618C237.887 105.618 238.535 105.888 239.074 106.428C239.669 106.968 239.966 107.616 239.966 108.372C239.966 109.182 239.669 109.857 239.074 110.397C238.535 110.937 237.887 111.207 237.131 111.207ZM235.834 119.55H238.427V156H235.834V119.55ZM250.17 119.55H252.762V127.65C253.95 124.95 255.975 122.79 258.837 121.17C261.699 119.496 264.858 118.659 268.314 118.659C272.796 118.659 276.333 120.09 278.925 122.952C281.571 125.76 282.894 129.702 282.894 134.778V156H280.302V134.778C280.302 130.404 279.222 127.002 277.062 124.572C274.956 122.142 271.986 120.927 268.152 120.927C265.344 120.927 262.752 121.575 260.376 122.871C258.054 124.113 256.191 125.841 254.787 128.055C253.437 130.269 252.762 132.78 252.762 135.588V156H250.17V119.55ZM310.528 154.704C313.336 154.704 316.009 153.975 318.547 152.517C321.085 151.059 323.191 149.061 324.865 146.523V150.654C322.867 152.868 320.68 154.488 318.304 155.514C315.928 156.486 313.228 156.972 310.204 156.972C306.856 156.972 303.697 156.081 300.727 154.299C297.811 152.517 295.462 150.141 293.68 147.171C291.952 144.201 291.088 141.042 291.088 137.694C291.088 134.076 291.952 130.836 293.68 127.974C295.408 125.058 297.757 122.79 300.727 121.17C303.751 119.55 307.099 118.74 310.771 118.74C316.387 118.74 321.166 120.954 325.108 125.382L299.674 150.492C301.456 151.95 303.184 153.03 304.858 153.732C306.532 154.38 308.422 154.704 310.528 154.704ZM293.68 137.451C293.68 141.933 295.165 145.767 298.135 148.953L321.868 125.382C320.086 123.816 318.358 122.709 316.684 122.061C315.01 121.359 313.012 121.008 310.69 121.008C307.396 121.008 304.453 121.737 301.861 123.195C299.323 124.599 297.325 126.543 295.867 129.027C294.409 131.511 293.68 134.319 293.68 137.451Z" fill="black" fill-opacity="0.26"/>
</g>
<path d="M121.268 118.324C120.78 118.323 120.36 117.796 120.328 117.147C120.32 116.988 120.337 116.831 120.377 116.685L120.7 115.495C121.047 114.109 120.951 112.559 120.434 111.192C119.66 109.214 119.516 106.95 120.038 104.939L120.362 103.749C120.509 103.144 121.006 102.845 121.471 103.081C121.937 103.317 122.195 103.998 122.048 104.603C122.042 104.628 122.036 104.652 122.028 104.676L121.705 105.866C121.358 107.252 121.454 108.802 121.971 110.169C122.745 112.147 122.889 114.411 122.368 116.421L122.043 117.611C121.926 118.044 121.621 118.324 121.268 118.324Z" fill="#FFDB99" fill-opacity="0.6"/>
<path d="M129.207 118.324C128.72 118.324 128.299 117.796 128.268 117.147C128.26 116.988 128.277 116.831 128.316 116.685L128.64 115.495C128.986 114.109 128.891 112.559 128.374 111.192C127.599 109.214 127.456 106.95 127.977 104.939L128.302 103.749C128.449 103.144 128.946 102.845 129.411 103.081C129.877 103.317 130.135 103.999 129.988 104.604C129.982 104.628 129.975 104.652 129.968 104.676L129.645 105.866C129.298 107.252 129.394 108.802 129.911 110.169C130.685 112.147 130.829 114.411 130.307 116.421L129.983 117.612C129.865 118.044 129.56 118.324 129.207 118.324Z" fill="#FFDB99" fill-opacity="0.6"/>
<path d="M137.149 118.325C136.662 118.324 136.241 117.797 136.21 117.147C136.202 116.988 136.219 116.831 136.258 116.685L136.582 115.495C136.928 114.109 136.833 112.559 136.316 111.192C135.541 109.214 135.398 106.95 135.919 104.94L136.244 103.75C136.391 103.145 136.888 102.845 137.353 103.081C137.819 103.317 138.077 103.999 137.93 104.604C137.924 104.628 137.917 104.652 137.91 104.676L137.587 105.866C137.24 107.252 137.336 108.802 137.853 110.169C138.627 112.147 138.771 114.411 138.249 116.422L137.925 117.612C137.807 118.044 137.502 118.325 137.149 118.325Z" fill="#FFDB99" fill-opacity="0.6"/>
<path d="M151.604 123.331H106C106.553 134.548 111.915 144.128 120.583 147.991L120.763 151.644H139.633L139.453 147.991C147.74 144.128 152.157 134.548 151.604 123.331Z" fill="#FFDB99" fill-opacity="0.6"/>
<path d="M138.427 144.241C137.996 144.247 137.622 143.845 137.591 143.342C137.57 142.989 137.726 142.665 137.991 142.511C142.347 139.898 145.717 134.246 146.79 127.76L146.963 126.71C147.053 126.225 147.469 125.939 147.892 126.072C148.301 126.201 148.569 126.676 148.501 127.151L148.329 128.21C147.174 135.197 143.512 141.305 138.772 144.15C138.666 144.212 138.548 144.243 138.427 144.241Z" fill="#FFE8BE"/>
<defs>
<filter id="filter0_d" x="41.5739" y="16.197" width="175.24" height="86.003" filterUnits="userSpaceOnUse" color-interpolation-filters="sRGB">
<feFlood flood-opacity="0" result="BackgroundImageFix"/>
<feColorMatrix in="SourceAlpha" type="matrix" values="0 0 0 0 0 0 0 0 0 0 0 0 0 0 0 0 0 0 127 0"/>
<feOffset dy="4"/>
<feGaussianBlur stdDeviation="2"/>
<feColorMatrix type="matrix" values="0 0 0 0 0 0 0 0 0 0 0 0 0 0 0 0 0 0 0.25 0"/>
<feBlend mode="normal" in2="BackgroundImageFix" result="effect1_dropShadow"/>
<feBlend mode="normal" in="SourceGraphic" in2="effect1_dropShadow" result="shape"/>
</filter>
<filter id="filter1_d" x="93.7" y="93.63" width="235.408" height="71.99" filterUnits="userSpaceOnUse" color-interpolation-filters="sRGB">
<feFlood flood-opacity="0" result="BackgroundImageFix"/>
<feColorMatrix in="SourceAlpha" type="matrix" values="0 0 0 0 0 0 0 0 0 0 0 0 0 0 0 0 0 0 127 0"/>
<feOffset dy="4"/>
<feGaussianBlur stdDeviation="2"/>
<feColorMatrix type="matrix" values="0 0 0 0 0 0 0 0 0 0 0 0 0 0 0 0 0 0 0.25 0"/>
<feBlend mode="normal" in2="BackgroundImageFix" result="effect1_dropShadow"/>
<feBlend mode="normal" in="SourceGraphic" in2="effect1_dropShadow" result="shape"/>
</filter>
</defs>
</svg>
