<svg width="2423" height="654" viewBox="0 0 2423 654" fill="none" xmlns="http://www.w3.org/2000/svg">
<rect width="444.074" height="654" rx="161.482" fill="#FFE8BE"/>
<rect x="645.926" width="444.074" height="654" rx="161.482" fill="#FFE8BE"/>
<rect x="1324.15" width="444.074" height="654" rx="161.482" fill="#FFE8BE"/>
<rect x="1978.15" width="444.074" height="654" rx="161.482" fill="#FFE8BE"/>
<ellipse cx="226.074" cy="209.927" rx="169.556" ry="177.63" fill="white"/>
<ellipse cx="872" cy="209.927" rx="169.556" ry="177.63" fill="white"/>
<ellipse cx="1550.22" cy="209.927" rx="169.556" ry="177.63" fill="white"/>
<ellipse cx="2204.22" cy="209.927" rx="169.556" ry="177.63" fill="white"/>
<path d="M123.301 494.64C114.733 494.64 108.057 492.314 103.273 487.662C98.4897 482.984 96.098 476.439 96.098 468.029C96.098 458.935 98.3977 452.062 102.997 447.41C107.597 442.732 114.417 440.392 123.458 440.392C128.951 440.392 134.852 441.063 141.16 442.403L141.396 453.954H138.794L137.612 447.094C135.772 445.964 133.63 445.097 131.186 444.492C128.768 443.862 126.297 443.546 123.774 443.546C117.019 443.546 112.091 445.531 108.99 449.499C105.888 453.468 104.338 459.618 104.338 467.95C104.338 475.624 105.954 481.486 109.187 485.533C112.446 489.581 117.177 491.604 123.38 491.604C126.376 491.604 129.201 491.25 131.856 490.54C134.51 489.804 136.613 488.832 138.164 487.623L139.622 479.738H142.185L141.948 492.156C136.166 493.812 129.95 494.64 123.301 494.64ZM162.281 455.965C166.328 455.965 169.298 456.793 171.191 458.449C173.109 460.104 174.069 462.641 174.069 466.058V491.092L178.681 492.077V493.852H168.51L167.761 490.146C164.764 493.142 160.94 494.64 156.288 494.64C149.954 494.64 146.787 490.96 146.787 483.601C146.787 481.131 147.26 479.094 148.206 477.491C149.179 475.861 150.716 474.626 152.819 473.785C154.922 472.917 157.97 472.444 161.965 472.365L167.524 472.208V466.412C167.524 463.863 167.051 461.984 166.105 460.775C165.185 459.566 163.753 458.961 161.808 458.961C159.179 458.961 156.774 459.579 154.593 460.814L153.253 465.427H151.045V457.345C155.303 456.425 159.048 455.965 162.281 455.965ZM167.524 474.967L162.36 475.125C158.838 475.256 156.446 475.94 155.184 477.175C153.949 478.41 153.331 480.474 153.331 483.365C153.331 487.99 155.211 490.303 158.969 490.303C160.756 490.303 162.294 490.106 163.582 489.712C164.896 489.291 166.21 488.766 167.524 488.135V474.967ZM191.602 491.092L197.949 492.077V493.852H178.75V492.077L185.057 491.092V440.55L178.75 439.604V437.83H191.602V491.092ZM234.209 475.125C234.209 488.135 228.427 494.64 216.862 494.64C211.29 494.64 207.085 492.971 204.246 489.633C201.408 486.295 199.989 481.459 199.989 475.125C199.989 468.87 201.408 464.086 204.246 460.775C207.085 457.463 211.395 455.807 217.178 455.807C222.802 455.807 227.047 457.437 229.912 460.696C232.776 463.929 234.209 468.738 234.209 475.125ZM227.112 475.125C227.112 469.448 226.285 465.335 224.629 462.785C222.973 460.236 220.384 458.961 216.862 458.961C213.419 458.961 210.922 460.183 209.372 462.628C207.847 465.072 207.085 469.238 207.085 475.125C207.085 481.091 207.86 485.323 209.411 487.82C210.988 490.29 213.472 491.526 216.862 491.526C220.332 491.526 222.907 490.238 224.589 487.662C226.271 485.086 227.112 480.907 227.112 475.125ZM260.77 455.807V465.821H259.075L256.788 461.484C255.474 461.484 253.91 461.668 252.097 462.036C250.31 462.378 248.759 462.838 247.445 463.416V491.092L253.792 492.077V493.852H236.209V492.077L240.9 491.092V459.553L236.209 458.567V456.793H247.011L247.366 461.405C248.943 460.091 251.072 458.83 253.753 457.621C256.46 456.412 258.602 455.807 260.179 455.807H260.77ZM273.73 444.69C273.73 445.846 273.31 446.845 272.469 447.686C271.628 448.527 270.616 448.947 269.433 448.947C268.277 448.947 267.278 448.527 266.437 447.686C265.596 446.845 265.175 445.846 265.175 444.69C265.175 443.507 265.596 442.495 266.437 441.654C267.278 440.813 268.277 440.392 269.433 440.392C270.616 440.392 271.628 440.813 272.469 441.654C273.31 442.495 273.73 443.507 273.73 444.69ZM273.336 491.092L279.683 492.077V493.852H260.484V492.077L266.792 491.092V459.553L261.548 458.567V456.793H273.336V491.092ZM288.819 475.204V475.914C288.819 479.541 289.213 482.366 290.002 484.39C290.817 486.387 292.052 487.912 293.708 488.963C295.39 490.014 297.585 490.54 300.292 490.54C301.711 490.54 303.393 490.422 305.338 490.185C307.283 489.949 308.886 489.686 310.148 489.397V491.604C308.886 492.419 307.165 493.129 304.983 493.733C302.828 494.338 300.62 494.64 298.36 494.64C292.604 494.64 288.386 493.089 285.705 489.988C283.05 486.887 281.723 481.906 281.723 475.046C281.723 468.581 283.076 463.758 285.784 460.578C288.491 457.397 292.354 455.807 297.374 455.807C306.862 455.807 311.606 461.195 311.606 471.971V475.204H288.819ZM297.374 458.961C294.641 458.961 292.538 460.065 291.066 462.273C289.621 464.481 288.898 467.74 288.898 472.05H304.747C304.747 467.345 304.142 463.994 302.933 461.997C301.724 459.973 299.871 458.961 297.374 458.961ZM340.257 483.444C340.257 487.123 339.088 489.909 336.749 491.802C334.436 493.694 331.006 494.64 326.459 494.64C324.619 494.64 322.582 494.443 320.348 494.049C318.14 493.681 316.406 493.26 315.144 492.787V483.68H316.918L318.85 488.845C320.821 490.632 323.384 491.526 326.538 491.526C331.637 491.526 334.186 489.344 334.186 484.981C334.186 481.775 332.175 479.488 328.154 478.121L324.645 476.978C321.991 476.111 320.059 475.23 318.85 474.337C317.641 473.443 316.708 472.352 316.051 471.064C315.394 469.75 315.065 468.173 315.065 466.333C315.065 463.074 316.169 460.512 318.377 458.646C320.611 456.753 323.62 455.807 327.405 455.807C330.112 455.807 333.503 456.215 337.576 457.029V465.111H335.724L334.068 460.814C332.675 459.579 330.48 458.961 327.484 458.961C325.355 458.961 323.725 459.487 322.595 460.538C321.491 461.589 320.939 463.009 320.939 464.796C320.939 466.294 321.439 467.556 322.438 468.581C323.463 469.606 325 470.46 327.05 471.143C330.914 472.457 333.437 473.417 334.62 474.021C335.802 474.626 336.801 475.375 337.616 476.268C338.457 477.136 339.101 478.134 339.548 479.265C340.021 480.395 340.257 481.788 340.257 483.444Z" fill="black"/>
<path d="M801.144 486.566C792.576 486.566 785.9 484.24 781.117 479.588C776.333 474.91 773.941 468.365 773.941 459.955C773.941 450.861 776.241 443.988 780.841 439.336C785.44 434.658 792.26 432.318 801.302 432.318C806.795 432.318 812.695 432.989 819.003 434.329L819.24 445.88H816.638L815.455 439.02C813.615 437.89 811.473 437.023 809.029 436.418C806.611 435.788 804.14 435.472 801.617 435.472C794.862 435.472 789.934 437.457 786.833 441.425C783.732 445.394 782.181 451.544 782.181 459.876C782.181 467.55 783.797 473.412 787.03 477.459C790.289 481.507 795.02 483.53 801.223 483.53C804.219 483.53 807.045 483.176 809.699 482.466C812.354 481.73 814.456 480.758 816.007 479.549L817.466 471.664H820.028L819.792 484.082C814.009 485.738 807.794 486.566 801.144 486.566ZM840.124 447.891C844.172 447.891 847.142 448.719 849.034 450.375C850.953 452.03 851.912 454.567 851.912 457.984V483.018L856.525 484.003V485.778H846.353L845.604 482.072C842.608 485.068 838.784 486.566 834.132 486.566C827.797 486.566 824.63 482.886 824.63 475.527C824.63 473.057 825.103 471.02 826.05 469.417C827.022 467.787 828.56 466.552 830.662 465.711C832.765 464.843 835.814 464.37 839.809 464.291L845.367 464.134V458.338C845.367 455.789 844.894 453.91 843.948 452.701C843.028 451.492 841.596 450.887 839.651 450.887C837.023 450.887 834.618 451.505 832.436 452.74L831.096 457.353H828.888V449.271C833.146 448.351 836.891 447.891 840.124 447.891ZM845.367 466.893L840.203 467.051C836.681 467.183 834.289 467.866 833.028 469.101C831.792 470.336 831.175 472.4 831.175 475.291C831.175 479.917 833.054 482.229 836.812 482.229C838.6 482.229 840.137 482.032 841.425 481.638C842.739 481.218 844.053 480.692 845.367 480.061V466.893ZM881.154 447.733V457.747H879.459L877.172 453.41C875.858 453.41 874.294 453.594 872.481 453.962C870.694 454.304 869.143 454.764 867.829 455.342V483.018L874.176 484.003V485.778H856.593V484.003L861.284 483.018V451.479L856.593 450.493V448.719H867.395L867.75 453.331C869.327 452.017 871.456 450.756 874.137 449.547C876.844 448.338 878.986 447.733 880.563 447.733H881.154ZM909.371 466.223C909.371 461.387 908.53 457.786 906.848 455.421C905.166 453.056 902.564 451.873 899.042 451.873C897.492 451.873 895.954 452.017 894.43 452.306C892.905 452.569 891.801 452.858 891.118 453.174V482.545C893.326 482.965 895.967 483.176 899.042 483.176C902.669 483.176 905.298 481.756 906.927 478.918C908.557 476.079 909.371 471.848 909.371 466.223ZM884.574 432.476L879.172 431.53V429.756H891.118V443.002C891.118 444.422 891.039 447.024 890.881 450.808C893.51 448.758 896.821 447.733 900.816 447.733C905.863 447.733 909.726 449.271 912.407 452.346C915.114 455.395 916.468 460.02 916.468 466.223C916.468 472.873 914.983 477.932 912.013 481.402C909.069 484.845 904.798 486.566 899.2 486.566C896.94 486.566 894.443 486.316 891.709 485.817C889.002 485.318 886.624 484.661 884.574 483.846V432.476ZM954.147 467.051C954.147 480.061 948.364 486.566 936.8 486.566C931.228 486.566 927.023 484.897 924.184 481.559C921.346 478.221 919.927 473.385 919.927 467.051C919.927 460.796 921.346 456.012 924.184 452.701C927.023 449.389 931.333 447.733 937.115 447.733C942.74 447.733 946.985 449.363 949.849 452.622C952.714 455.855 954.147 460.664 954.147 467.051ZM947.05 467.051C947.05 461.374 946.222 457.261 944.567 454.711C942.911 452.162 940.322 450.887 936.8 450.887C933.357 450.887 930.86 452.109 929.309 454.554C927.785 456.998 927.023 461.164 927.023 467.051C927.023 473.017 927.798 477.249 929.349 479.746C930.926 482.216 933.41 483.452 936.8 483.452C940.269 483.452 942.845 482.164 944.527 479.588C946.209 477.012 947.05 472.833 947.05 467.051Z" fill="black"/>
<path d="M1479.46 448.561C1479.46 444.224 1478.45 441.123 1476.43 439.257C1474.4 437.391 1471 436.458 1466.22 436.458H1462.35V461.492H1466.45C1470.9 461.492 1474.17 460.48 1476.27 458.457C1478.4 456.433 1479.46 453.134 1479.46 448.561ZM1462.35 465.04V482.624L1470.75 483.688V485.778H1448.48V483.688L1454.74 482.624V436.024L1447.96 434.999V432.91H1467.91C1480.84 432.91 1487.31 438.101 1487.31 448.482C1487.31 453.897 1485.67 458.01 1482.38 460.822C1479.12 463.634 1474.43 465.04 1468.31 465.04H1462.35ZM1514.07 447.733V457.747H1512.37L1510.09 453.41C1508.77 453.41 1507.21 453.594 1505.39 453.962C1503.61 454.304 1502.06 454.764 1500.74 455.342V483.018L1507.09 484.003V485.778H1489.51V484.003L1494.2 483.018V451.479L1489.51 450.493V448.719H1500.31L1500.66 453.331C1502.24 452.017 1504.37 450.756 1507.05 449.547C1509.76 448.338 1511.9 447.733 1513.48 447.733H1514.07ZM1549.38 467.051C1549.38 480.061 1543.6 486.566 1532.03 486.566C1526.46 486.566 1522.26 484.897 1519.42 481.559C1516.58 478.221 1515.16 473.385 1515.16 467.051C1515.16 460.796 1516.58 456.012 1519.42 452.701C1522.26 449.389 1526.57 447.733 1532.35 447.733C1537.97 447.733 1542.22 449.363 1545.08 452.622C1547.95 455.855 1549.38 460.664 1549.38 467.051ZM1542.28 467.051C1542.28 461.374 1541.46 457.261 1539.8 454.711C1538.15 452.162 1535.56 450.887 1532.03 450.887C1528.59 450.887 1526.09 452.109 1524.54 454.554C1523.02 456.998 1522.26 461.164 1522.26 467.051C1522.26 473.017 1523.03 477.249 1524.58 479.746C1526.16 482.216 1528.64 483.452 1532.03 483.452C1535.5 483.452 1538.08 482.164 1539.76 479.588C1541.44 477.012 1542.28 472.833 1542.28 467.051ZM1562.93 486.566C1560.41 486.566 1558.52 485.817 1557.26 484.319C1556.02 482.821 1555.4 480.718 1555.4 478.011V452.03H1550.55V450.256L1555.48 448.719L1559.46 440.321H1561.95V448.719H1570.42V452.03H1561.95V477.301C1561.95 479.01 1562.33 480.298 1563.09 481.165C1563.88 482.032 1564.9 482.466 1566.17 482.466C1567.69 482.466 1569.54 482.256 1571.72 481.835V484.398C1570.8 485.029 1569.48 485.541 1567.74 485.935C1566.01 486.356 1564.4 486.566 1562.93 486.566ZM1579.8 467.13V467.84C1579.8 471.467 1580.19 474.292 1580.98 476.316C1581.79 478.313 1583.03 479.838 1584.68 480.889C1586.37 481.94 1588.56 482.466 1591.27 482.466C1592.69 482.466 1594.37 482.348 1596.31 482.111C1598.26 481.875 1599.86 481.612 1601.12 481.323V483.53C1599.86 484.345 1598.14 485.055 1595.96 485.659C1593.8 486.264 1591.6 486.566 1589.34 486.566C1583.58 486.566 1579.36 485.015 1576.68 481.914C1574.03 478.813 1572.7 473.832 1572.7 466.972C1572.7 460.507 1574.05 455.684 1576.76 452.504C1579.47 449.323 1583.33 447.733 1588.35 447.733C1597.84 447.733 1602.58 453.121 1602.58 463.897V467.13H1579.8ZM1588.35 450.887C1585.62 450.887 1583.51 451.991 1582.04 454.199C1580.6 456.407 1579.87 459.666 1579.87 463.976H1595.72C1595.72 459.271 1595.12 455.92 1593.91 453.923C1592.7 451.899 1590.85 450.887 1588.35 450.887ZM1617.67 436.616C1617.67 437.772 1617.25 438.771 1616.41 439.612C1615.57 440.453 1614.56 440.873 1613.37 440.873C1612.22 440.873 1611.22 440.453 1610.38 439.612C1609.54 438.771 1609.12 437.772 1609.12 436.616C1609.12 435.433 1609.54 434.421 1610.38 433.58C1611.22 432.739 1612.22 432.318 1613.37 432.318C1614.56 432.318 1615.57 432.739 1616.41 433.58C1617.25 434.421 1617.67 435.433 1617.67 436.616ZM1617.28 483.018L1623.62 484.003V485.778H1604.43V484.003L1610.73 483.018V451.479L1605.49 450.493V448.719H1617.28V483.018ZM1635.28 451.715C1637.31 450.559 1639.46 449.612 1641.75 448.877C1644.04 448.114 1645.94 447.733 1647.47 447.733C1650.67 447.733 1653.09 448.666 1654.72 450.532C1656.35 452.398 1657.16 455.106 1657.16 458.654V483.018L1661.66 484.003V485.778H1645.69V484.003L1650.62 483.018V459.363C1650.62 457.182 1650.08 455.474 1649 454.238C1647.95 452.977 1646.31 452.346 1644.08 452.346C1641.71 452.346 1638.81 452.727 1635.36 453.489V483.018L1640.37 484.003V485.778H1624.36V484.003L1628.82 483.018V451.479L1624.36 450.493V448.719H1634.93L1635.28 451.715Z" fill="black"/>
<path d="M2184.09 462.044V482.624L2192.89 483.688V485.778H2170.22V483.688L2176.49 482.624V436.024L2169.7 434.999V432.91H2209.37V445.565H2206.76L2205.5 437.01C2202.56 436.642 2198.3 436.458 2192.73 436.458H2184.09V458.496H2199.67L2200.89 452.188H2203.29V468.431H2200.89L2199.67 462.044H2184.09ZM2227.96 447.891C2232.01 447.891 2234.98 448.719 2236.87 450.375C2238.79 452.03 2239.75 454.567 2239.75 457.984V483.018L2244.36 484.003V485.778H2234.19L2233.44 482.072C2230.45 485.068 2226.62 486.566 2221.97 486.566C2215.64 486.566 2212.47 482.886 2212.47 475.527C2212.47 473.057 2212.94 471.02 2213.89 469.417C2214.86 467.787 2216.4 466.552 2218.5 465.711C2220.6 464.843 2223.65 464.37 2227.65 464.291L2233.21 464.134V458.338C2233.21 455.789 2232.73 453.91 2231.79 452.701C2230.87 451.492 2229.44 450.887 2227.49 450.887C2224.86 450.887 2222.46 451.505 2220.28 452.74L2218.94 457.353H2216.73V449.271C2220.99 448.351 2224.73 447.891 2227.96 447.891ZM2233.21 466.893L2228.04 467.051C2224.52 467.183 2222.13 467.866 2220.87 469.101C2219.63 470.336 2219.01 472.4 2219.01 475.291C2219.01 479.917 2220.89 482.229 2224.65 482.229C2226.44 482.229 2227.98 482.032 2229.26 481.638C2230.58 481.218 2231.89 480.692 2233.21 480.061V466.893ZM2255.98 486.566C2253.46 486.566 2251.57 485.817 2250.31 484.319C2249.07 482.821 2248.45 480.718 2248.45 478.011V452.03H2243.6V450.256L2248.53 448.719L2252.51 440.321H2255V448.719H2263.47V452.03H2255V477.301C2255 479.01 2255.38 480.298 2256.14 481.165C2256.93 482.032 2257.95 482.466 2259.22 482.466C2260.74 482.466 2262.59 482.256 2264.77 481.835V484.398C2263.85 485.029 2262.53 485.541 2260.79 485.935C2259.06 486.356 2257.46 486.566 2255.98 486.566Z" fill="black"/>
<path d="M177.712 583.816L191.373 569.091L187.895 568.133V566.537H199.675V568.133L195.524 568.949L186.015 578.671L198.221 597.477L201.84 598.293V599.889H188.179V598.293L191.231 597.406L182.076 583.036L177.712 587.826V597.406L181.26 598.293V599.889H167.6V598.293L171.822 597.406V551.918L166.89 551.066V549.47H177.712V583.816ZM229.166 597.867C228.007 598.719 226.41 599.393 224.376 599.889C222.342 600.362 220.26 600.599 218.131 600.599C207.321 600.599 201.916 594.721 201.916 582.965C201.916 577.406 203.288 573.136 206.032 570.156C208.799 567.152 212.75 565.649 217.883 565.649C221.076 565.649 224.565 566.016 228.35 566.749V576.046H226.398L224.873 570.156C222.909 569.044 220.556 568.488 217.812 568.488C211.472 568.488 208.303 573.314 208.303 582.965C208.303 587.979 209.261 591.563 211.177 593.716C213.116 595.844 216.109 596.909 220.154 596.909C223.607 596.909 226.611 596.519 229.166 595.738V597.867ZM245.244 565.791C248.887 565.791 251.56 566.537 253.263 568.027C254.99 569.517 255.854 571.8 255.854 574.875V597.406L260.005 598.293V599.889H250.851L250.176 596.554C247.48 599.251 244.038 600.599 239.851 600.599C234.15 600.599 231.3 597.287 231.3 590.664C231.3 588.441 231.726 586.607 232.577 585.164C233.453 583.698 234.836 582.586 236.729 581.829C238.621 581.049 241.365 580.623 244.961 580.552L249.964 580.41V575.194C249.964 572.9 249.538 571.208 248.686 570.12C247.858 569.032 246.569 568.488 244.819 568.488C242.453 568.488 240.289 569.044 238.326 570.156L237.119 574.307H235.132V567.033C238.964 566.205 242.335 565.791 245.244 565.791ZM249.964 582.894L245.315 583.036C242.146 583.154 239.993 583.769 238.858 584.881C237.746 585.992 237.19 587.849 237.19 590.451C237.19 594.614 238.881 596.696 242.264 596.696C243.873 596.696 245.256 596.519 246.415 596.164C247.598 595.785 248.781 595.312 249.964 594.745V582.894ZM271.364 597.406L277.077 598.293V599.889H259.797V598.293L265.474 597.406V551.918L259.797 551.066V549.47H271.364V597.406Z" fill="black" fill-opacity="0.6"/>
<path d="M880.665 577.075C880.665 580.907 879.518 583.804 877.224 585.768C874.929 587.731 871.629 588.713 867.324 588.713C865.385 588.713 863.587 588.535 861.931 588.18L859.696 592.829C859.767 593.231 860.228 593.609 861.08 593.964C861.931 594.319 862.996 594.496 864.273 594.496H874.137C877.732 594.496 880.393 595.277 882.12 596.838C883.871 598.399 884.746 600.552 884.746 603.296C884.746 605.779 884.048 607.944 882.652 609.789C881.281 611.634 879.258 613.053 876.585 614.047C873.912 615.064 870.671 615.572 866.863 615.572C862.321 615.572 858.856 614.875 856.467 613.479C854.101 612.083 852.919 610.096 852.919 607.518C852.919 606.264 853.345 605.022 854.196 603.792C855.048 602.586 856.609 601.167 858.88 599.535C857.531 599.085 856.396 598.316 855.473 597.228C854.551 596.14 854.09 594.969 854.09 593.716L859.696 587.4C855.958 585.649 854.09 582.208 854.09 577.075C854.09 573.432 855.237 570.617 857.531 568.63C859.85 566.643 863.208 565.649 867.608 565.649C868.483 565.649 869.607 565.744 870.979 565.933C872.351 566.099 873.404 566.3 874.137 566.537L881.978 562.598L883.22 564.124L878.288 569.233C879.873 571.007 880.665 573.621 880.665 577.075ZM879.211 604.396C879.211 603.047 878.797 601.995 877.969 601.238C877.141 600.481 875.887 600.102 874.208 600.102H861.292C860.299 600.954 859.483 602.03 858.844 603.331C858.229 604.656 857.922 605.886 857.922 607.021C857.922 609.056 858.655 610.51 860.122 611.386C861.588 612.284 863.835 612.734 866.863 612.734C870.813 612.734 873.853 612.001 875.982 610.534C878.134 609.067 879.211 607.021 879.211 604.396ZM867.395 586.016C869.974 586.016 871.795 585.283 872.86 583.816C873.948 582.326 874.492 580.079 874.492 577.075C874.492 573.929 873.936 571.693 872.824 570.369C871.712 569.02 869.926 568.346 867.466 568.346C864.983 568.346 863.161 569.02 862.002 570.369C860.843 571.717 860.263 573.952 860.263 577.075C860.263 580.197 860.831 582.468 861.967 583.887C863.102 585.306 864.912 586.016 867.395 586.016Z" fill="black" fill-opacity="0.6"/>
<path d="M1566.96 560.926C1566.96 564.758 1565.81 567.656 1563.52 569.619C1561.23 571.582 1557.93 572.564 1553.62 572.564C1551.68 572.564 1549.88 572.387 1548.23 572.032L1545.99 576.68C1546.06 577.082 1546.52 577.46 1547.38 577.815C1548.23 578.17 1549.29 578.347 1550.57 578.347H1560.43C1564.03 578.347 1566.69 579.128 1568.42 580.689C1570.17 582.25 1571.04 584.403 1571.04 587.147C1571.04 589.631 1570.34 591.795 1568.95 593.64C1567.58 595.485 1565.55 596.904 1562.88 597.898C1560.21 598.915 1556.97 599.424 1553.16 599.424C1548.62 599.424 1545.15 598.726 1542.76 597.33C1540.4 595.935 1539.22 593.948 1539.22 591.369C1539.22 590.116 1539.64 588.874 1540.49 587.644C1541.34 586.437 1542.91 585.018 1545.18 583.386C1543.83 582.936 1542.69 582.168 1541.77 581.08C1540.85 579.991 1540.39 578.821 1540.39 577.567L1545.99 571.251C1542.25 569.501 1540.39 566.059 1540.39 560.926C1540.39 557.283 1541.53 554.468 1543.83 552.481C1546.15 550.494 1549.5 549.501 1553.9 549.501C1554.78 549.501 1555.9 549.595 1557.28 549.785C1558.65 549.95 1559.7 550.151 1560.43 550.388L1568.27 546.449L1569.52 547.975L1564.58 553.084C1566.17 554.859 1566.96 557.472 1566.96 560.926ZM1565.51 588.247C1565.51 586.899 1565.09 585.846 1564.27 585.089C1563.44 584.332 1562.18 583.954 1560.5 583.954H1547.59C1546.6 584.805 1545.78 585.881 1545.14 587.182C1544.53 588.507 1544.22 589.737 1544.22 590.873C1544.22 592.907 1544.95 594.362 1546.42 595.237C1547.88 596.136 1550.13 596.585 1553.16 596.585C1557.11 596.585 1560.15 595.852 1562.28 594.385C1564.43 592.919 1565.51 590.873 1565.51 588.247ZM1553.69 569.867C1556.27 569.867 1558.09 569.134 1559.16 567.667C1560.24 566.177 1560.79 563.93 1560.79 560.926C1560.79 557.78 1560.23 555.545 1559.12 554.22C1558.01 552.872 1556.22 552.197 1553.76 552.197C1551.28 552.197 1549.46 552.872 1548.3 554.22C1547.14 555.568 1546.56 557.804 1546.56 560.926C1546.56 564.048 1547.13 566.319 1548.26 567.738C1549.4 569.158 1551.21 569.867 1553.69 569.867Z" fill="black" fill-opacity="0.6"/>
<path d="M2220.96 569C2220.96 572.832 2219.81 575.729 2217.52 577.693C2215.23 579.656 2211.93 580.638 2207.62 580.638C2205.68 580.638 2203.88 580.46 2202.23 580.105L2199.99 584.754C2200.06 585.156 2200.52 585.534 2201.38 585.889C2202.23 586.244 2203.29 586.421 2204.57 586.421H2214.43C2218.03 586.421 2220.69 587.202 2222.42 588.763C2224.17 590.324 2225.04 592.477 2225.04 595.221C2225.04 597.704 2224.34 599.869 2222.95 601.714C2221.58 603.559 2219.55 604.978 2216.88 605.972C2214.21 606.989 2210.97 607.497 2207.16 607.497C2202.62 607.497 2199.15 606.8 2196.76 605.404C2194.4 604.008 2193.22 602.021 2193.22 599.443C2193.22 598.189 2193.64 596.947 2194.49 595.717C2195.34 594.511 2196.91 593.092 2199.18 591.46C2197.83 591.01 2196.69 590.241 2195.77 589.153C2194.85 588.065 2194.39 586.894 2194.39 585.641L2199.99 579.325C2196.25 577.574 2194.39 574.133 2194.39 569C2194.39 565.357 2195.53 562.542 2197.83 560.555C2200.15 558.568 2203.5 557.575 2207.9 557.575C2208.78 557.575 2209.9 557.669 2211.28 557.858C2212.65 558.024 2213.7 558.225 2214.43 558.462L2222.27 554.523L2223.52 556.049L2218.58 561.158C2220.17 562.932 2220.96 565.546 2220.96 569ZM2219.51 596.321C2219.51 594.972 2219.09 593.92 2218.27 593.163C2217.44 592.406 2216.18 592.027 2214.5 592.027H2201.59C2200.6 592.879 2199.78 593.955 2199.14 595.256C2198.53 596.581 2198.22 597.811 2198.22 598.946C2198.22 600.981 2198.95 602.435 2200.42 603.311C2201.88 604.209 2204.13 604.659 2207.16 604.659C2211.11 604.659 2214.15 603.926 2216.28 602.459C2218.43 600.992 2219.51 598.946 2219.51 596.321ZM2207.69 577.941C2210.27 577.941 2212.09 577.208 2213.16 575.741C2214.24 574.251 2214.79 572.004 2214.79 569C2214.79 565.854 2214.23 563.618 2213.12 562.294C2212.01 560.945 2210.22 560.271 2207.76 560.271C2205.28 560.271 2203.46 560.945 2202.3 562.294C2201.14 563.642 2200.56 565.877 2200.56 569C2200.56 572.122 2201.13 574.393 2202.26 575.812C2203.4 577.231 2205.21 577.941 2207.69 577.941Z" fill="black" fill-opacity="0.6"/>
<path d="M174.013 239.331C174.013 248.845 170.754 256.283 164.236 261.645C157.718 267.007 148.493 269.688 136.56 269.688C126.573 269.688 117.111 268.557 108.175 266.297L107.307 244.062H112.511L116.06 258.885C118.11 260.042 121.001 261.041 124.733 261.882C128.518 262.723 132.04 263.143 135.299 263.143C143.551 263.143 149.649 261.251 153.591 257.466C157.534 253.681 159.505 247.373 159.505 238.542C159.505 231.604 157.692 226.347 154.064 222.773C150.437 219.146 144.813 217.148 137.191 216.78L125.916 216.15V209.684L137.191 208.974C143.131 208.659 147.52 206.819 150.359 203.455C153.197 200.091 154.616 194.992 154.616 188.158C154.616 181.062 153.066 175.911 149.964 172.704C146.916 169.445 142.027 167.815 135.299 167.815C132.513 167.815 129.595 168.21 126.546 168.998C123.498 169.734 120.817 170.733 118.504 171.994L115.744 184.926H110.54V164.583C115.744 163.216 120.239 162.322 124.023 161.902C127.808 161.429 131.566 161.192 135.299 161.192C157.902 161.192 169.203 169.865 169.203 187.212C169.203 194.519 167.18 200.354 163.132 204.716C159.137 209.027 153.46 211.708 146.101 212.759C155.668 213.863 162.712 216.623 167.232 221.038C171.753 225.401 174.013 231.499 174.013 239.331ZM253.561 235.31C253.561 246.296 250.775 254.785 245.203 260.778C239.683 266.718 231.693 269.688 221.233 269.688C209.353 269.688 200.259 265.062 193.951 255.81C187.696 246.559 184.568 233.26 184.568 215.913C184.568 204.559 186.224 194.755 189.536 186.503C192.847 178.25 197.473 171.968 203.413 167.658C209.406 163.347 216.318 161.192 224.15 161.192C231.825 161.192 239.473 162.112 247.095 163.952V182.166H241.891L239.131 171.364C237.397 170.417 235.058 169.603 232.114 168.919C229.17 168.183 226.516 167.815 224.15 167.815C216.476 167.815 210.483 171.548 206.173 179.012C201.915 186.424 199.576 197.278 199.155 211.576C207.723 207.056 216.318 204.795 224.939 204.795C234.243 204.795 241.339 207.424 246.228 212.68C251.116 217.884 253.561 225.427 253.561 235.31ZM220.917 263.459C227.278 263.459 231.877 261.408 234.716 257.308C237.554 253.156 238.974 246.322 238.974 236.808C238.974 228.187 237.607 221.958 234.874 218.121C232.193 214.283 227.909 212.365 222.021 212.365C214.82 212.365 207.172 213.679 199.076 216.307C199.076 232.34 200.89 244.22 204.517 251.947C208.144 259.621 213.611 263.459 220.917 263.459ZM327.51 268.111H262.775V256.52L277.441 243.195C286.85 234.942 293.763 228.266 298.178 223.167C302.594 218.068 305.748 212.812 307.64 207.397C309.585 201.983 310.558 195.78 310.558 188.789C310.558 181.956 309.007 176.752 305.905 173.177C302.804 169.603 297.732 167.815 290.688 167.815C287.902 167.815 285.037 168.21 282.093 168.998C279.15 169.734 276.548 170.733 274.287 171.994L271.528 184.926H266.324V164.583C275.891 162.322 284.012 161.192 290.688 161.192C302.252 161.192 310.925 163.61 316.708 168.446C322.542 173.23 325.46 180.011 325.46 188.789C325.46 194.676 324.303 200.248 321.991 205.505C319.73 210.709 316.235 215.913 311.504 221.117C306.773 226.268 298.941 233.496 288.007 242.8C283.329 246.795 278.361 251.184 273.105 255.968H327.51V268.111Z" fill="black"/>
<path d="M2174.26 261.803L2195.87 263.932V268.111H2139.02V263.932L2160.7 261.803V175.543L2139.33 183.191V179.012L2170.16 161.508H2174.26V261.803ZM2277.47 214.809C2277.47 251.395 2265.9 269.688 2242.77 269.688C2231.63 269.688 2223.22 265.009 2217.54 255.653C2211.86 246.296 2209.03 232.681 2209.03 214.809C2209.03 197.305 2211.86 183.927 2217.54 174.675C2223.22 165.371 2231.84 160.719 2243.4 160.719C2254.55 160.719 2263.01 165.319 2268.79 174.518C2274.58 183.664 2277.47 197.094 2277.47 214.809ZM2262.96 214.809C2262.96 197.883 2261.36 185.688 2258.15 178.223C2254.94 170.759 2249.82 167.027 2242.77 167.027C2235.94 167.027 2231.02 170.549 2228.03 177.593C2225.03 184.636 2223.53 197.042 2223.53 214.809C2223.53 232.681 2225.06 245.271 2228.11 252.577C2231.16 259.832 2236.04 263.459 2242.77 263.459C2249.71 263.459 2254.81 259.648 2258.07 252.026C2261.33 244.351 2262.96 231.945 2262.96 214.809Z" fill="black"/>
<path d="M1519.31 188.158C1519.31 193.941 1517.89 198.855 1515.05 202.903C1512.26 206.898 1508.48 209.947 1503.7 212.049C1509.69 214.257 1514.31 217.726 1517.57 222.457C1520.89 227.136 1522.54 232.839 1522.54 239.567C1522.54 249.555 1519.73 257.072 1514.1 262.118C1508.48 267.164 1499.73 269.688 1487.85 269.688C1465.35 269.688 1454.1 259.648 1454.1 239.567C1454.1 232.576 1455.78 226.794 1459.15 222.221C1462.51 217.595 1467.06 214.205 1472.79 212.049C1468.21 209.947 1464.48 206.898 1461.59 202.903C1458.75 198.908 1457.33 193.993 1457.33 188.158C1457.33 179.432 1459.99 172.678 1465.3 167.894C1470.66 163.111 1478.39 160.719 1488.48 160.719C1498.26 160.719 1505.83 163.111 1511.19 167.894C1516.6 172.625 1519.31 179.38 1519.31 188.158ZM1508.35 239.567C1508.35 231.157 1506.69 225.059 1503.38 221.275C1500.12 217.49 1494.94 215.598 1487.85 215.598C1480.91 215.598 1475.92 217.411 1472.87 221.038C1469.82 224.613 1468.29 230.789 1468.29 239.567C1468.29 248.451 1469.84 254.654 1472.95 258.176C1476.05 261.698 1481.01 263.459 1487.85 263.459C1494.84 263.459 1499.99 261.645 1503.3 258.018C1506.67 254.338 1508.35 248.188 1508.35 239.567ZM1505.12 188.158C1505.12 180.904 1503.7 175.569 1500.86 172.152C1498.02 168.735 1493.74 167.027 1488.01 167.027C1482.43 167.027 1478.28 168.683 1475.55 171.994C1472.87 175.306 1471.53 180.694 1471.53 188.158C1471.53 195.465 1472.84 200.722 1475.47 203.928C1478.1 207.082 1482.28 208.659 1488.01 208.659C1493.89 208.659 1498.2 207.056 1500.94 203.849C1503.72 200.59 1505.12 195.36 1505.12 188.158ZM1556.2 264.247C1556.2 271.449 1554.1 277.467 1549.89 282.303C1545.74 287.192 1539.82 290.74 1532.15 292.948V286.877C1541.4 283.933 1546.03 279.517 1546.03 273.63C1546.03 272.579 1545.63 271.632 1544.84 270.791C1544.06 269.95 1542.69 269.03 1540.74 268.032C1537.17 266.192 1535.38 263.59 1535.38 260.226C1535.38 257.387 1536.28 255.232 1538.06 253.76C1539.85 252.236 1542.14 251.474 1544.92 251.474C1548.29 251.474 1550.99 252.683 1553.05 255.101C1555.15 257.519 1556.2 260.567 1556.2 264.247ZM1568.88 194.624C1568.88 184.006 1571.85 175.779 1577.79 169.944C1583.73 164.11 1592.12 161.192 1602.95 161.192C1614.98 161.192 1623.79 165.529 1629.36 174.202C1634.98 182.875 1637.8 196.464 1637.8 214.967C1637.8 232.681 1634.2 246.243 1626.99 255.653C1619.79 265.009 1609.67 269.688 1596.64 269.688C1588.07 269.688 1580.21 268.794 1573.06 267.007V248.714H1578.19L1580.95 260.068C1582.63 260.857 1584.89 261.566 1587.73 262.197C1590.57 262.828 1593.43 263.143 1596.32 263.143C1604.73 263.143 1611.2 259.464 1615.72 252.104C1620.24 244.693 1622.74 233.812 1623.21 219.461C1615.22 223.929 1607.1 226.163 1598.85 226.163C1589.54 226.163 1582.21 223.404 1576.85 217.884C1571.54 212.312 1568.88 204.559 1568.88 194.624ZM1603.1 167.5C1589.96 167.5 1583.39 176.646 1583.39 194.939C1583.39 202.982 1584.97 208.922 1588.12 212.759C1591.28 216.596 1596.16 218.515 1602.79 218.515C1609.57 218.515 1616.4 217.122 1623.29 214.336C1623.29 198.198 1621.69 186.371 1618.48 178.854C1615.32 171.285 1610.2 167.5 1603.1 167.5Z" fill="black"/>
<path d="M868.536 235.31C868.536 246.296 865.75 254.785 860.178 260.778C854.659 266.718 846.669 269.688 836.208 269.688C824.328 269.688 815.235 265.062 808.927 255.81C802.671 246.559 799.544 233.26 799.544 215.913C799.544 204.559 801.2 194.755 804.511 186.503C807.823 178.25 812.449 171.968 818.388 167.658C824.381 163.347 831.293 161.192 839.126 161.192C846.8 161.192 854.448 162.112 862.07 163.952V182.166H856.867L854.107 171.364C852.372 170.417 850.033 169.603 847.089 168.919C844.146 168.183 841.491 167.815 839.126 167.815C831.451 167.815 825.459 171.548 821.148 179.012C816.89 186.424 814.551 197.278 814.131 211.576C822.699 207.056 831.293 204.795 839.914 204.795C849.218 204.795 856.315 207.424 861.203 212.68C866.092 217.884 868.536 225.427 868.536 235.31ZM835.893 263.459C842.253 263.459 846.853 261.408 849.691 257.308C852.53 253.156 853.949 246.322 853.949 236.808C853.949 228.187 852.582 221.958 849.849 218.121C847.168 214.283 842.884 212.365 836.997 212.365C829.795 212.365 822.147 213.679 814.052 216.307C814.052 232.34 815.865 244.22 819.492 251.947C823.119 259.621 828.586 263.459 835.893 263.459ZM945.245 214.809C945.245 251.395 933.681 269.688 910.552 269.688C899.408 269.688 890.997 265.009 885.32 255.653C879.643 246.296 876.805 232.681 876.805 214.809C876.805 197.305 879.643 183.927 885.32 174.675C890.997 165.371 899.618 160.719 911.183 160.719C922.326 160.719 930.789 165.319 936.572 174.518C942.354 183.664 945.245 197.094 945.245 214.809ZM930.737 214.809C930.737 197.883 929.134 185.688 925.927 178.223C922.721 170.759 917.596 167.027 910.552 167.027C903.718 167.027 898.803 170.549 895.807 177.593C892.811 184.636 891.313 197.042 891.313 214.809C891.313 232.681 892.837 245.271 895.886 252.577C898.935 259.832 903.823 263.459 910.552 263.459C917.49 263.459 922.589 259.648 925.848 252.026C929.107 244.351 930.737 231.945 930.737 214.809Z" fill="black"/>
</svg>
